<?xml version="1.0" encoding="utf-8"?>
<!-- Generator: Adobe Illustrator 15.0.0, SVG Export Plug-In . SVG Version: 6.00 Build 0)  -->
<!DOCTYPE svg PUBLIC "-//W3C//DTD SVG 1.1//EN" "http://www.w3.org/Graphics/SVG/1.1/DTD/svg11.dtd">
<svg version="1.1" id="Layer_1" xmlns="http://www.w3.org/2000/svg" xmlns:xlink="http://www.w3.org/1999/xlink" x="0px" y="0px"
	 width="76.834px" height="110.703px" viewBox="0 0 76.834 110.703" enable-background="new 0 0 76.834 110.703"
	 xml:space="preserve">
<g>
	<g>
		<g>
			<path fill="#49A844" d="M72.561,55.088c0.025,0.447-0.244,0.826-0.514,1.298c-0.235,0.388-25.859,42.502-25.859,42.502l0,0
				c-1.457,2.443-4.127,4.07-7.168,4.07c-4.616,0-8.348-3.732-8.348-8.349c0-1.828,0.59-3.512,1.584-4.885L53.17,55.088
				L32.256,20.451c-0.994-1.372-1.584-3.057-1.584-4.885c0-4.615,3.731-8.348,8.348-8.348c3.041,0,5.711,1.626,7.168,4.069
				l0.043,0.159c0,0,25.581,41.956,25.816,42.344C72.316,54.263,72.586,54.642,72.561,55.088z"/>
			<path display="none" fill="#49A844" d="M72.561,55.089c0.025,0.446-0.244,0.824-0.514,1.296
				c-0.15,0.245-10.561,17.357-18.123,29.79c1.922-4.506,2.985-9.465,2.985-14.674c0-5.87-1.325-11.469-3.738-16.412l0,0
				l-0.251-0.414l-2.939-4.871L32.256,20.453c-0.993-1.375-1.584-3.059-1.584-4.887c0-4.615,3.731-8.348,8.348-8.348
				c3.039,0,5.711,1.626,7.169,4.068l0.042,0.16c0,0,25.58,41.956,25.816,42.344C72.316,54.262,72.586,54.643,72.561,55.089z"/>
		</g>
	</g>
	<g>
		<path fill="#FFE180" d="M45.963,55.088c0.025,0.447-0.244,0.826-0.514,1.298C45.213,56.773,19.59,98.888,19.59,98.888l0,0
			c-1.457,2.443-4.128,4.07-7.168,4.07c-4.617,0-8.348-3.732-8.348-8.349c0-1.828,0.59-3.512,1.584-4.885l20.914-34.637
			L5.658,20.451c-0.994-1.372-1.584-3.057-1.584-4.885c0-4.615,3.73-8.348,8.348-8.348c3.04,0,5.711,1.626,7.168,4.069l0.041,0.159
			c0,0,25.582,41.956,25.818,42.344C45.719,54.263,45.988,54.642,45.963,55.088z"/>
		<path display="none" fill="#FFE180" d="M45.962,55.089c0.025,0.446-0.244,0.824-0.513,1.296
			c-0.151,0.245-10.562,17.357-18.125,29.79c1.924-4.506,2.986-9.465,2.986-14.674c0-5.87-1.325-11.469-3.738-16.412l0,0
			l-0.25-0.414l-2.94-4.871L5.658,20.453c-0.994-1.375-1.584-3.059-1.584-4.887c0-4.615,3.73-8.348,8.348-8.348
			c3.039,0,5.71,1.626,7.168,4.068l0.042,0.16c0,0,25.581,41.956,25.817,42.344C45.718,54.262,45.987,54.643,45.962,55.089z"/>
	</g>
</g>
</svg>
